<svg xmlns="http://www.w3.org/2000/svg" viewBox="0 0 232.175 62.700001" height="62.7" width="232.175"><path d="M34.935 33.32c0-.676-.356-1.3-.94-1.635l-15.587-8.97c-.264-.154-.56-.235-.858-.247h-.16c-.3.012-.594.093-.862.248L.942 31.686C.362 32.02 0 32.643 0 33.32l.034 24.154c0 .336.175.648.47.813.29.173.647.173.935 0l9.262-5.304c.586-.348.943-.962.943-1.633V40.066c0-.673.356-1.296.94-1.63l3.943-2.272c.294-.17.616-.253.944-.253.32 0 .65.084.936.254l3.943 2.272c.585.334.943.957.943 1.63V51.35c0 .67.36 1.29.943 1.633l9.26 5.304c.29.173.653.173.94 0 .288-.165.47-.477.47-.813l.03-24.153M116.714 45.897c0 .168-.09.324-.236.408l-5.353 3.085c-.145.084-.325.084-.47 0l-5.354-3.086c-.144-.083-.234-.24-.234-.407v-6.18c0-.17.09-.325.235-.41l5.354-3.09c.146-.085.326-.085.472 0l5.353 3.09c.144.085.234.24.234.41v6.18zM118.16.12c-.29-.163-.647-.16-.935.01-.288.17-.465.478-.465.81v23.92c0 .235-.126.453-.33.57-.203.12-.454.12-.658 0l-3.904-2.248c-.582-.336-1.3-.335-1.88 0l-15.593 9c-.583.335-.94.957-.94 1.63v18c0 .672.357 1.294.94 1.63l15.59 9.006c.584.336 1.302.336 1.885 0l15.594-9.005c.582-.337.94-.96.94-1.63V6.94c0-.68-.37-1.31-.965-1.643L118.16.12M173.944 39.554c.58-.337.936-.957.936-1.628v-4.362c0-.67-.356-1.29-.938-1.628l-15.49-8.995c-.585-.338-1.303-.338-1.888-.002l-15.586 9c-.583.335-.942.956-.942 1.63v17.995c0 .677.364 1.3.95 1.636l15.492 8.825c.57.326 1.27.33 1.846.01l9.368-5.208c.298-.165.483-.477.484-.816.003-.338-.18-.653-.472-.822l-15.685-9.002c-.295-.168-.475-.48-.475-.817v-5.64c0-.337.18-.648.47-.816L156.9 36.1c.29-.17.647-.17.937 0l4.885 2.814c.292.168.472.48.472.815v4.436c0 .338.18.65.47.817.293.168.652.167.943-.002l9.337-5.426" fill="#2e2d2d" fill-rule="evenodd"/><path d="M63.288 22.844c.582-.336 1.3-.336 1.882 0l15.59 8.997c.583.337.942.958.942 1.632v18.006c0 .673-.36 1.294-.94 1.63L65.17 62.114c-.583.337-1.3.337-1.883 0L47.7 53.11c-.582-.338-.94-.96-.94-1.632V33.47c0-.672.358-1.293.94-1.63l15.588-8.996" fill="#72c42d" fill-rule="evenodd"/><path d="M204.214 62.37c-.538 0-1.07-.14-1.54-.412l-4.91-2.904c-.733-.41-.375-.556-.134-.64.98-.34 1.176-.418 2.22-1.01.11-.06.253-.038.365.028l3.77 2.24c.138.075.33.075.456 0l14.7-8.486c.14-.078.226-.236.226-.398V33.823c0-.166-.087-.32-.227-.405l-14.696-8.478c-.136-.08-.316-.08-.454 0l-14.69 8.48c-.144.082-.234.242-.234.403v16.965c0 .162.09.316.232.393l4.027 2.328c2.185 1.092 3.524-.194 3.524-1.487V35.27c0-.236.19-.423.425-.423h1.865c.233 0 .425.187.425.424v16.75c0 2.917-1.587 4.59-4.352 4.59-.85 0-1.52 0-3.387-.92l-3.855-2.22c-.95-.55-1.54-1.58-1.54-2.682V33.823c0-1.103.59-2.13 1.54-2.68l14.703-8.494c.93-.528 2.166-.528 3.088 0l14.7 8.493c.954.55 1.545 1.577 1.545 2.68v16.965c0 1.102-.59 2.128-1.544 2.682l-14.7 8.488c-.47.272-1 .412-1.546.412" fill="#72c42d"/><path d="M208.755 50.682c-6.434 0-7.78-2.953-7.78-5.43 0-.235.19-.423.424-.423h1.9c.212 0 .39.15.422.36.287 1.934 1.143 2.91 5.033 2.91 3.096 0 4.415-.7 4.415-2.343 0-.948-.374-1.65-5.186-2.122-4.023-.398-6.51-1.287-6.51-4.504 0-2.966 2.5-4.735 6.69-4.735 4.71 0 7.04 1.635 7.336 5.142.01.12-.03.237-.11.327-.082.085-.195.136-.312.136h-1.91c-.197 0-.372-.14-.412-.332-.457-2.036-1.57-2.687-4.59-2.687-3.382 0-3.775 1.18-3.775 2.06 0 1.07.465 1.382 5.03 1.986 4.518.597 6.664 1.443 6.664 4.618 0 3.204-2.67 5.038-7.33 5.038" fill="#72c42d"/><path d="M157.278 38.71c.112-.064.25-.064.36 0l2.993 1.727c.113.065.18.184.18.313v3.455c0 .13-.067.248-.18.313l-2.99 1.726c-.112.065-.25.065-.362 0l-2.99-1.726c-.112-.065-.18-.184-.18-.313V40.75c0-.13.068-.248.18-.313l2.99-1.726" fill="#72c42d" fill-rule="evenodd"/><path d="M228.882 27.05h.495c.404 0 .48-.285.48-.45 0-.435-.3-.435-.465-.435h-.51v.885zm-.6-1.394h1.095c.375 0 1.11 0 1.11.84 0 .584-.374.704-.6.78.436.03.464.314.524.718.033.255.078.69.166.84h-.673c-.017-.15-.122-.96-.122-1.004-.043-.18-.104-.27-.328-.27h-.555v1.274h-.615v-3.178zm-1.31 1.58c0 1.32 1.064 2.385 2.368 2.385 1.32 0 2.384-1.086 2.384-2.383 0-1.32-1.08-2.368-2.384-2.368-1.29 0-2.37 1.033-2.37 2.367zm5.208.01c0 1.558-1.274 2.832-2.833 2.832-1.545 0-2.833-1.26-2.833-2.833 0-1.604 1.32-2.834 2.833-2.834 1.53 0 2.833 1.23 2.833 2.835" fill="#72c42d"/></svg>